<svg width="90" height="80" viewBox="0 0 90 80" fill="none" xmlns="http://www.w3.org/2000/svg">
<path fill-rule="evenodd" clip-rule="evenodd" d="M84 0C87.3137 0 90 2.68629 90 6V61C90 64.3137 87.3137 67 84 67H52.9619L53.4805 72H60C62.2091 72 64 73.7909 64 76C64 78.2091 62.2091 80 60 80H30C27.7909 80 26 78.2091 26 76C26 73.7909 27.7909 72 30 72H36.5195L37.0381 67H6C2.68629 67 0 64.3137 0 61V6C0 2.68629 2.68629 1.69117e-07 6 0H84ZM44.5 56C42.567 56 41 57.567 41 59.5C41 61.433 42.567 63 44.5 63C46.433 63 48 61.433 48 59.5C48 57.567 46.433 56 44.5 56ZM8 52H82V8H8V52Z" fill="white"/>
</svg>
