<svg width="86" height="84" viewBox="0 0 86 84" fill="none" xmlns="http://www.w3.org/2000/svg">
<path fill-rule="evenodd" clip-rule="evenodd" d="M32 69H74V80C74 82.2091 72.2091 84 70 84H30C27.7909 84 26 82.2091 26 80V38.3643C27.6952 35.3704 30.1024 30.9223 32 26.627V69ZM50 73C48.3431 73 47 74.3431 47 76C47 77.6569 48.3431 79 50 79C51.6569 79 53 77.6569 53 76C53 74.3431 51.6569 73 50 73Z" fill="white"/>
<path d="M23.5 10.248C25.5 9.24773 30 11.248 30 16.748C29.9998 22.248 25.2564 29.1294 21 36.248V75.248C10.453 75.9094 5.53745 75.1519 0 70.248V30.748C0 30.748 8 26.748 13.5 22.248C18.9999 17.7481 21.5 11.2486 23.5 10.248Z" fill="white"/>
<path d="M79 53C81.2091 53 83 54.7909 83 57V58C83 60.2091 81.2091 62 79 62H66C63.7909 62 62 60.2091 62 58V57C62 54.7909 63.7909 53 66 53H79Z" fill="white"/>
<path d="M82 41C84.2091 41 86 42.7909 86 45V46C86 48.2091 84.2091 50 82 50H66C63.7909 50 62 48.2091 62 46V45C62 42.7909 63.7909 41 66 41H82Z" fill="white"/>
<path d="M82 29C84.2091 29 86 30.7909 86 33V34C86 36.2091 84.2091 38 82 38H66C63.7909 38 62 36.2091 62 34V33C62 30.7909 63.7909 29 66 29H82Z" fill="white"/>
<path d="M79 17C81.2091 17 83 18.7909 83 21V22C83 24.2091 81.2091 26 79 26H66C63.7909 26 62 24.2091 62 22V21C62 18.7909 63.7909 17 66 17H79Z" fill="white"/>
<path d="M70 0C72.2091 0 74 1.79086 74 4V12H68V9H32.4307C30.7119 6.95861 28.3435 5.86125 26 6.01465V4C26 1.79086 27.7909 6.44256e-08 30 0H70Z" fill="white"/>
</svg>
